<?xml version="1.0" standalone="no"?>
<!DOCTYPE svg PUBLIC "-//W3C//DTD SVG 20010904//EN"
 "http://www.w3.org/TR/2001/REC-SVG-20010904/DTD/svg10.dtd">
<svg version="1.0" xmlns="http://www.w3.org/2000/svg"
 width="400.000000pt" height="400.000000pt" viewBox="0 0 400.000000 400.000000"
 preserveAspectRatio="xMidYMid meet">

<g transform="translate(0.000000,400.000000) scale(0.100000,-0.100000)"
fill="#000000" stroke="none">
<path d="M250 2185 l0 -495 130 0 130 0 0 355 0 355 115 0 115 0 0 -355 0
-355 130 0 130 0 0 355 0 355 115 0 115 0 0 -355 0 -355 130 0 130 0 0 495 0
495 -620 0 -620 0 0 -495z"/>
<path d="M1560 2185 l0 -495 620 0 620 0 0 495 0 495 -130 0 -130 0 0 -355 0
-355 -115 0 -115 0 0 355 0 355 -130 0 -130 0 0 -355 0 -355 -115 0 -115 0 0
355 0 355 -130 0 -130 0 0 -495z"/>
<path d="M2888 2540 l-3 -140 328 0 327 0 0 -35 0 -35 -324 0 -325 0 -3 -145
-3 -145 328 0 327 0 0 -35 0 -35 -327 0 -328 0 0 -140 0 -140 458 0 457 0 0
495 0 495 -454 0 -455 0 -3 -140z"/>
<path d="M290 1535 l0 -105 30 0 30 0 0 80 0 80 30 0 30 0 0 -80 c0 -78 1 -80
25 -80 23 0 24 3 27 78 3 76 3 77 31 80 l27 3 0 -80 0 -81 30 0 30 0 0 105 0
105 -145 0 -145 0 0 -105z"/>
<path d="M600 1535 l0 -105 110 0 110 0 0 105 0 105 -110 0 -110 0 0 -105z
m160 0 l0 -55 -50 0 -50 0 0 55 0 55 50 0 50 0 0 -55z"/>
<path d="M838 1535 l-3 -105 28 0 c26 0 27 2 27 55 0 30 3 55 8 55 4 -1 27
-25 51 -55 34 -44 49 -55 72 -55 l29 0 0 105 0 105 -30 0 c-30 0 -30 0 -30
-57 l-1 -58 -52 58 c-33 37 -60 57 -74 57 -21 0 -22 -5 -25 -105z"/>
<path d="M1070 1613 l0 -28 77 0 78 0 0 -50 0 -50 -47 -3 -48 -3 0 40 c0 39
-2 41 -30 41 l-30 0 0 -65 0 -65 105 0 105 0 0 105 0 105 -105 0 -105 0 0 -27z"/>
<path d="M1300 1535 l0 -105 110 0 110 0 0 105 0 105 -110 0 -110 0 0 -105z
m160 -5 l0 -50 -50 0 -50 0 0 50 0 50 50 0 50 0 0 -50z"/>
<path d="M1850 1535 l0 -105 145 0 145 0 0 105 0 105 -30 0 -30 0 0 -81 0 -80
-27 3 c-28 3 -28 4 -31 81 -3 74 -4 77 -27 77 -24 0 -25 -2 -25 -80 l0 -80
-30 0 -30 0 0 80 0 80 -30 0 -30 0 0 -105z"/>
<path d="M2160 1535 l0 -105 110 0 110 0 0 25 c0 25 -1 25 -80 25 -64 0 -80 3
-80 15 0 12 16 15 80 15 79 0 80 0 80 25 0 25 -1 25 -80 25 -64 0 -80 3 -80
15 0 12 16 15 80 15 79 0 80 0 80 25 l0 25 -110 0 -110 0 0 -105z"/>
<path d="M2400 1535 l0 -105 104 0 104 0 0 105 0 105 -104 0 -104 0 0 -105z
m150 40 c0 -11 -12 -15 -50 -15 -38 0 -50 4 -50 15 0 11 12 15 50 15 38 0 50
-4 50 -15z m0 -80 c0 -11 -12 -15 -50 -15 -38 0 -50 4 -50 15 0 11 12 15 50
15 38 0 50 -4 50 -15z"/>
<path d="M2940 1612 c0 -26 2 -27 40 -24 l40 4 0 -81 0 -81 30 0 30 0 0 80 0
80 40 0 c36 0 40 3 40 25 l0 25 -110 0 -110 0 0 -28z"/>
<path d="M3180 1535 l0 -105 25 0 c23 0 25 4 25 40 0 52 18 52 62 -1 29 -35
39 -40 68 -37 l33 3 -26 31 c-33 39 -33 44 -2 44 24 0 25 2 25 65 l0 65 -105
0 -105 0 0 -105z m150 40 c0 -11 -12 -15 -50 -15 -38 0 -50 4 -50 15 0 11 12
15 50 15 38 0 50 -4 50 -15z"/>
<path d="M3410 1535 l0 -105 105 0 105 0 0 25 c0 24 -2 25 -75 25 -60 0 -75 3
-75 15 0 12 15 15 75 15 73 0 75 1 75 25 0 24 -2 25 -75 25 -60 0 -75 3 -75
15 0 12 15 15 75 15 73 0 75 1 75 25 l0 25 -105 0 -105 0 0 -105z"/>
</g>
</svg>
